<svg width="180" height="62" viewBox="0 0 180 62" fill="none" xmlns="http://www.w3.org/2000/svg">
<path d="M0 0H180V62H0V0Z" fill="#FFC368"/>
<g clip-path="url(#clip0_1_917)">
<path d="M50.3161 22.4545C49.4741 21.5165 48.298 21 47 21C45.695 21 44.5151 21.5134 43.677 22.4455C42.8298 23.3879 42.417 24.6687 42.514 26.0518C42.7061 28.7803 44.7185 30.9999 47 30.9999C49.2815 30.9999 51.2905 28.7808 51.4856 26.0526C51.5838 24.6821 51.1684 23.404 50.3161 22.4545ZM54.6152 40.9999H39.3848C39.1855 41.0026 38.9881 40.9593 38.8069 40.8734C38.6258 40.7874 38.4655 40.6609 38.3377 40.503C38.0565 40.1561 37.9431 39.6825 38.0271 39.2035C38.3923 37.1133 39.5319 35.3575 41.3232 34.1249C42.9146 33.0307 44.9305 32.4285 47 32.4285C49.0695 32.4285 51.0854 33.0312 52.6768 34.1249C54.4681 35.3571 55.6077 37.1129 55.9729 39.203C56.0569 39.682 55.9435 40.1557 55.6623 40.5026C55.5345 40.6606 55.3743 40.7872 55.1931 40.8732C55.012 40.9592 54.8146 41.0025 54.6152 40.9999Z" fill="#1C2752"/>
</g>
<path d="M68.4053 37H67.0203L71.026 26.0909H72.3897L76.3953 37H75.0104L71.7505 27.8168H71.6652L68.4053 37ZM68.9166 32.7386H74.499V33.9105H68.9166V32.7386ZM79.4812 26.0909V37H78.2241V26.0909H79.4812ZM85.5141 37.1705C84.7257 37.1705 84.0457 36.9964 83.4739 36.6484C82.9058 36.2969 82.4672 35.8068 82.1582 35.1783C81.8529 34.5462 81.7002 33.8111 81.7002 32.973C81.7002 32.1349 81.8529 31.3963 82.1582 30.7571C82.4672 30.1143 82.8969 29.6136 83.4473 29.255C84.0013 28.8928 84.6476 28.7116 85.3862 28.7116C85.8124 28.7116 86.2332 28.7827 86.6487 28.9247C87.0641 29.0668 87.4423 29.2976 87.7832 29.6172C88.1242 29.9332 88.3958 30.3523 88.5982 30.8743C88.8007 31.3963 88.9019 32.0391 88.9019 32.8026V33.3352H82.595V32.2486H87.6234C87.6234 31.7869 87.5311 31.375 87.3465 31.0128C87.1654 30.6506 86.9061 30.3647 86.5688 30.1552C86.235 29.9457 85.8408 29.8409 85.3862 29.8409C84.8855 29.8409 84.4523 29.9652 84.0865 30.2138C83.7243 30.4588 83.4455 30.7784 83.2502 31.1726C83.0549 31.5668 82.9573 31.9893 82.9573 32.4403V33.1648C82.9573 33.7827 83.0638 34.3065 83.2769 34.7362C83.4935 35.1623 83.7935 35.4872 84.1771 35.7109C84.5606 35.9311 85.0063 36.0412 85.5141 36.0412C85.8443 36.0412 86.1426 35.995 86.409 35.9027C86.6788 35.8068 86.9114 35.6648 87.1068 35.4766C87.3021 35.2848 87.453 35.0469 87.5595 34.7628L88.774 35.1037C88.6462 35.5156 88.4313 35.8778 88.1295 36.1903C87.8276 36.4993 87.4548 36.7408 87.0109 36.9148C86.567 37.0852 86.0681 37.1705 85.5141 37.1705ZM91.8319 28.8182L93.7921 32.1634L95.7524 28.8182H97.2012L94.5592 32.9091L97.2012 37H95.7524L93.7921 33.8253L91.8319 37H90.3831L92.9825 32.9091L90.3831 28.8182H91.8319ZM103.984 37V26.0909H105.305V35.8281H110.376V37H103.984ZM115.875 37.1705C115.136 37.1705 114.488 36.9947 113.931 36.6431C113.377 36.2915 112.944 35.7997 112.631 35.1676C112.322 34.5355 112.168 33.7969 112.168 32.9517C112.168 32.0994 112.322 31.3555 112.631 30.7198C112.944 30.0842 113.377 29.5906 113.931 29.239C114.488 28.8874 115.136 28.7116 115.875 28.7116C116.614 28.7116 117.26 28.8874 117.814 29.239C118.372 29.5906 118.805 30.0842 119.114 30.7198C119.426 31.3555 119.583 32.0994 119.583 32.9517C119.583 33.7969 119.426 34.5355 119.114 35.1676C118.805 35.7997 118.372 36.2915 117.814 36.6431C117.26 36.9947 116.614 37.1705 115.875 37.1705ZM115.875 36.0412C116.436 36.0412 116.898 35.8974 117.26 35.6097C117.622 35.3221 117.89 34.9439 118.064 34.4751C118.238 34.0064 118.325 33.4986 118.325 32.9517C118.325 32.4048 118.238 31.8952 118.064 31.4229C117.89 30.9506 117.622 30.5689 117.26 30.2777C116.898 29.9865 116.436 29.8409 115.875 29.8409C115.314 29.8409 114.852 29.9865 114.49 30.2777C114.128 30.5689 113.86 30.9506 113.686 31.4229C113.512 31.8952 113.425 32.4048 113.425 32.9517C113.425 33.4986 113.512 34.0064 113.686 34.4751C113.86 34.9439 114.128 35.3221 114.49 35.6097C114.852 35.8974 115.314 36.0412 115.875 36.0412ZM126.958 33.6548V28.8182H128.215V37H126.958V35.6151H126.872C126.681 36.0305 126.382 36.3839 125.978 36.6751C125.573 36.9627 125.061 37.1065 124.443 37.1065C123.932 37.1065 123.478 36.9947 123.08 36.771C122.682 36.5437 122.37 36.2028 122.142 35.7482C121.915 35.2901 121.801 34.7131 121.801 34.017V28.8182H123.059V33.9318C123.059 34.5284 123.225 35.0043 123.559 35.3594C123.897 35.7145 124.326 35.892 124.848 35.892C125.161 35.892 125.479 35.8121 125.802 35.6523C126.129 35.4925 126.402 35.2475 126.622 34.9173C126.846 34.587 126.958 34.1662 126.958 33.6548ZM130.817 37V28.8182H132.074V37H130.817ZM131.456 27.4545C131.211 27.4545 131 27.3711 130.823 27.2042C130.649 27.0373 130.562 26.8366 130.562 26.6023C130.562 26.3679 130.649 26.1673 130.823 26.0004C131 25.8335 131.211 25.75 131.456 25.75C131.702 25.75 131.911 25.8335 132.085 26.0004C132.263 26.1673 132.351 26.3679 132.351 26.6023C132.351 26.8366 132.263 27.0373 132.085 27.2042C131.911 27.3711 131.702 27.4545 131.456 27.4545ZM140.472 30.6506L139.343 30.9702C139.272 30.782 139.167 30.5991 139.029 30.4215C138.894 30.2404 138.709 30.0913 138.475 29.9741C138.24 29.8569 137.94 29.7983 137.575 29.7983C137.074 29.7983 136.657 29.9137 136.323 30.1445C135.993 30.3718 135.827 30.6612 135.827 31.0128C135.827 31.3253 135.941 31.5721 136.168 31.7532C136.396 31.9343 136.751 32.0852 137.234 32.206L138.448 32.5043C139.18 32.6818 139.725 32.9535 140.083 33.3192C140.442 33.6815 140.621 34.1484 140.621 34.7202C140.621 35.1889 140.486 35.608 140.217 35.9773C139.95 36.3466 139.577 36.6378 139.098 36.8509C138.619 37.0639 138.061 37.1705 137.425 37.1705C136.591 37.1705 135.9 36.9893 135.353 36.6271C134.806 36.2649 134.46 35.7358 134.315 35.0398L135.508 34.7415C135.621 35.1818 135.836 35.5121 136.152 35.7322C136.472 35.9524 136.889 36.0625 137.404 36.0625C137.99 36.0625 138.455 35.9382 138.8 35.6896C139.148 35.4375 139.322 35.1357 139.322 34.7841C139.322 34.5 139.222 34.2621 139.023 34.0703C138.825 33.875 138.519 33.7294 138.107 33.6335L136.744 33.3139C135.994 33.1364 135.444 32.8612 135.092 32.4883C134.744 32.1119 134.57 31.6413 134.57 31.0767C134.57 30.6151 134.7 30.2067 134.959 29.8516C135.222 29.4964 135.579 29.2177 136.03 29.0153C136.484 28.8129 136.999 28.7116 137.575 28.7116C138.384 28.7116 139.02 28.8892 139.482 29.2443C139.947 29.5994 140.277 30.0682 140.472 30.6506Z" fill="#1C2752"/>
<defs>
<clipPath id="clip0_1_917">
<rect width="18" height="20" fill="white" transform="translate(38 21)"/>
</clipPath>
</defs>
</svg>
