<svg width="181" height="62" viewBox="0 0 181 62" fill="none" xmlns="http://www.w3.org/2000/svg">
<path d="M0 0H181V62H0V0Z" fill="#FFB342"/>
<path d="M34 22C29.0297 22 25 26.0297 25 31C25 35.9703 29.0297 40 34 40C38.9703 40 43 35.9703 43 31C43 26.0297 38.9703 22 34 22ZM38.1538 32.3846H34C33.8164 32.3846 33.6403 32.3117 33.5105 32.1818C33.3806 32.052 33.3077 31.8759 33.3077 31.6923V25.4615C33.3077 25.2779 33.3806 25.1018 33.5105 24.972C33.6403 24.8422 33.8164 24.7692 34 24.7692C34.1836 24.7692 34.3597 24.8422 34.4895 24.972C34.6194 25.1018 34.6923 25.2779 34.6923 25.4615V31H38.1538C38.3375 31 38.5135 31.0729 38.6434 31.2028C38.7732 31.3326 38.8462 31.5087 38.8462 31.6923C38.8462 31.8759 38.7732 32.052 38.6434 32.1818C38.5135 32.3117 38.3375 32.3846 38.1538 32.3846Z" fill="#1C2752"/>
<path d="M55.7882 37H54.4032L58.4089 26.0909H59.7726L63.7782 37H62.3933L59.1334 27.8168H59.0481L55.7882 37ZM56.2996 32.7386H61.8819V33.9105H56.2996V32.7386ZM65.607 40.0682V28.8182H66.8215V30.1179H66.9706C67.063 29.9759 67.1908 29.7947 67.3542 29.5746C67.5211 29.3509 67.759 29.152 68.068 28.978C68.3805 28.8004 68.803 28.7116 69.3357 28.7116C70.0246 28.7116 70.6319 28.8839 71.1574 29.2283C71.683 29.5728 72.0932 30.0611 72.3879 30.6932C72.6827 31.3253 72.83 32.071 72.83 32.9304C72.83 33.7969 72.6827 34.5479 72.3879 35.1836C72.0932 35.8157 71.6848 36.3058 71.1628 36.6538C70.6407 36.9982 70.0388 37.1705 69.357 37.1705C68.8314 37.1705 68.4106 37.0835 68.0946 36.9094C67.7785 36.7319 67.5353 36.5312 67.3648 36.3075C67.1944 36.0803 67.063 35.892 66.9706 35.7429H66.8641V40.0682H65.607ZM66.8428 32.9091C66.8428 33.527 66.9334 34.0721 67.1145 34.5444C67.2956 35.0131 67.5601 35.3807 67.9081 35.647C68.2562 35.9098 68.6823 36.0412 69.1866 36.0412C69.7121 36.0412 70.1507 35.9027 70.5023 35.6257C70.8574 35.3452 71.1237 34.9687 71.3013 34.4964C71.4824 34.0206 71.5729 33.4915 71.5729 32.9091C71.5729 32.3338 71.4841 31.8153 71.3066 31.3537C71.1326 30.8885 70.868 30.521 70.5129 30.2511C70.1613 29.9776 69.7192 29.8409 69.1866 29.8409C68.6752 29.8409 68.2455 29.9705 67.8975 30.2298C67.5495 30.4854 67.2867 30.8441 67.1091 31.3058C66.9316 31.7638 66.8428 32.2983 66.8428 32.9091ZM75.0476 37V28.8182H76.2621V30.054H76.3474C76.4965 29.6491 76.7664 29.3207 77.157 29.0685C77.5476 28.8164 77.988 28.6903 78.478 28.6903C78.5704 28.6903 78.6858 28.6921 78.8243 28.6957C78.9628 28.6992 79.0675 28.7045 79.1385 28.7116V29.9901C79.0959 29.9794 78.9983 29.9634 78.8456 29.9421C78.6964 29.9173 78.5384 29.9048 78.3715 29.9048C77.9738 29.9048 77.6187 29.9883 77.3062 30.1552C76.9972 30.3185 76.7522 30.5458 76.5711 30.837C76.3935 31.1246 76.3047 31.4531 76.3047 31.8224V37H75.0476ZM80.9287 37V28.8182H82.1858V37H80.9287ZM81.5679 27.4545C81.3229 27.4545 81.1116 27.3711 80.934 27.2042C80.76 27.0373 80.673 26.8366 80.673 26.6023C80.673 26.3679 80.76 26.1673 80.934 26.0004C81.1116 25.8335 81.3229 25.75 81.5679 25.75C81.8129 25.75 82.0224 25.8335 82.1964 26.0004C82.374 26.1673 82.4628 26.3679 82.4628 26.6023C82.4628 26.8366 82.374 27.0373 82.1964 27.2042C82.0224 27.3711 81.8129 27.4545 81.5679 27.4545ZM86.0454 26.0909V37H84.7883V26.0909H86.0454ZM96.9805 26.0909V37H95.6595V27.4759H95.5956L92.9322 29.2443V27.902L95.6595 26.0909H96.9805ZM104.04 37.1491C103.593 37.142 103.145 37.0568 102.698 36.8935C102.25 36.7301 101.842 36.4549 101.473 36.0678C101.103 35.6772 100.807 35.1499 100.583 34.4858C100.359 33.8182 100.247 32.9801 100.247 31.9716C100.247 31.0057 100.338 30.1499 100.519 29.4041C100.7 28.6548 100.963 28.0245 101.307 27.5131C101.652 26.9982 102.067 26.6076 102.554 26.3413C103.044 26.0749 103.596 25.9418 104.211 25.9418C104.821 25.9418 105.365 26.0643 105.841 26.3093C106.32 26.5508 106.711 26.8881 107.012 27.3214C107.314 27.7546 107.51 28.2536 107.598 28.8182H106.299C106.178 28.3281 105.943 27.9215 105.595 27.5984C105.247 27.2752 104.786 27.1136 104.211 27.1136C103.365 27.1136 102.7 27.4812 102.213 28.2163C101.73 28.9513 101.487 29.983 101.483 31.3111H101.568C101.767 31.0092 102.004 30.7518 102.277 30.5387C102.554 30.3221 102.859 30.1552 103.193 30.038C103.527 29.9208 103.88 29.8622 104.253 29.8622C104.878 29.8622 105.45 30.0185 105.968 30.331C106.487 30.6399 106.902 31.0678 107.215 31.6147C107.527 32.158 107.684 32.7812 107.684 33.4844C107.684 34.1591 107.533 34.777 107.231 35.3381C106.929 35.8956 106.505 36.3395 105.958 36.6697C105.414 36.9964 104.775 37.1562 104.04 37.1491ZM104.04 35.9773C104.488 35.9773 104.889 35.8654 105.244 35.6417C105.603 35.418 105.885 35.1179 106.091 34.7415C106.3 34.3651 106.405 33.946 106.405 33.4844C106.405 33.0334 106.304 32.6232 106.102 32.2539C105.903 31.881 105.627 31.5845 105.276 31.3643C104.928 31.1442 104.53 31.0341 104.083 31.0341C103.745 31.0341 103.431 31.1016 103.14 31.2365C102.849 31.3679 102.593 31.549 102.373 31.7798C102.156 32.0107 101.986 32.2752 101.861 32.5735C101.737 32.8683 101.675 33.179 101.675 33.5057C101.675 33.9389 101.776 34.3437 101.979 34.7202C102.185 35.0966 102.465 35.4002 102.82 35.631C103.179 35.8619 103.586 35.9773 104.04 35.9773ZM111.462 35.5085L111.377 36.0838C111.316 36.4886 111.224 36.9219 111.1 37.3835C110.979 37.8452 110.853 38.2802 110.721 38.6886C110.59 39.0969 110.482 39.4219 110.397 39.6634H109.438C109.484 39.4361 109.544 39.136 109.619 38.7631C109.693 38.3903 109.768 37.973 109.843 37.5114C109.921 37.0533 109.985 36.5845 110.034 36.1051L110.098 35.5085H111.462ZM118.588 37V36.0412L122.189 32.0994C122.612 31.6378 122.96 31.2365 123.233 30.8956C123.507 30.5511 123.709 30.228 123.841 29.9261C123.976 29.6207 124.043 29.3011 124.043 28.9673C124.043 28.5838 123.951 28.2518 123.766 27.9712C123.585 27.6907 123.336 27.4741 123.02 27.3214C122.704 27.1687 122.349 27.0923 121.955 27.0923C121.536 27.0923 121.17 27.1793 120.858 27.3533C120.549 27.5238 120.309 27.7635 120.139 28.0724C119.972 28.3814 119.888 28.7436 119.888 29.1591H118.631C118.631 28.5199 118.778 27.9588 119.073 27.4759C119.368 26.9929 119.769 26.6165 120.277 26.3466C120.788 26.0767 121.362 25.9418 121.998 25.9418C122.637 25.9418 123.203 26.0767 123.697 26.3466C124.19 26.6165 124.577 26.9805 124.858 27.4386C125.139 27.8967 125.279 28.4062 125.279 28.9673C125.279 29.3686 125.206 29.761 125.06 30.1445C124.918 30.5245 124.67 30.9489 124.315 31.4176C123.963 31.8828 123.475 32.451 122.85 33.1222L120.4 35.7429V35.8281H125.471V37H118.588ZM131.529 37.1491C130.726 37.1491 130.043 36.9308 129.478 36.494C128.913 36.0536 128.482 35.4162 128.184 34.5817C127.885 33.7436 127.736 32.7315 127.736 31.5455C127.736 30.3665 127.885 29.3597 128.184 28.5252C128.485 27.6871 128.919 27.0479 129.483 26.6076C130.051 26.1637 130.733 25.9418 131.529 25.9418C132.324 25.9418 133.004 26.1637 133.569 26.6076C134.137 27.0479 134.57 27.6871 134.869 28.5252C135.17 29.3597 135.321 30.3665 135.321 31.5455C135.321 32.7315 135.172 33.7436 134.874 34.5817C134.576 35.4162 134.144 36.0536 133.579 36.494C133.015 36.9308 132.331 37.1491 131.529 37.1491ZM131.529 35.9773C132.324 35.9773 132.942 35.5937 133.382 34.8267C133.823 34.0597 134.043 32.9659 134.043 31.5455C134.043 30.6009 133.942 29.7965 133.739 29.1325C133.54 28.4684 133.253 27.9624 132.876 27.6143C132.504 27.2663 132.054 27.0923 131.529 27.0923C130.74 27.0923 130.124 27.4812 129.68 28.2589C129.236 29.033 129.015 30.1286 129.015 31.5455C129.015 32.4901 129.114 33.2926 129.313 33.9531C129.512 34.6136 129.798 35.1161 130.17 35.4606C130.547 35.805 131 35.9773 131.529 35.9773ZM137.645 37V36.0412L141.246 32.0994C141.669 31.6378 142.017 31.2365 142.29 30.8956C142.564 30.5511 142.766 30.228 142.898 29.9261C143.033 29.6207 143.1 29.3011 143.1 28.9673C143.1 28.5838 143.008 28.2518 142.823 27.9712C142.642 27.6907 142.393 27.4741 142.077 27.3214C141.761 27.1687 141.406 27.0923 141.012 27.0923C140.593 27.0923 140.227 27.1793 139.915 27.3533C139.606 27.5238 139.366 27.7635 139.196 28.0724C139.029 28.3814 138.945 28.7436 138.945 29.1591H137.688C137.688 28.5199 137.835 27.9588 138.13 27.4759C138.425 26.9929 138.826 26.6165 139.334 26.3466C139.845 26.0767 140.419 25.9418 141.055 25.9418C141.694 25.9418 142.26 26.0767 142.754 26.3466C143.247 26.6165 143.634 26.9805 143.915 27.4386C144.196 27.8967 144.336 28.4062 144.336 28.9673C144.336 29.3686 144.263 29.761 144.117 30.1445C143.975 30.5245 143.727 30.9489 143.372 31.4176C143.02 31.8828 142.532 32.451 141.907 33.1222L139.457 35.7429V35.8281H144.528V37H137.645ZM147.028 37V36.0412L150.628 32.0994C151.051 31.6378 151.399 31.2365 151.672 30.8956C151.946 30.5511 152.148 30.228 152.28 29.9261C152.415 29.6207 152.482 29.3011 152.482 28.9673C152.482 28.5838 152.39 28.2518 152.205 27.9712C152.024 27.6907 151.775 27.4741 151.459 27.3214C151.143 27.1687 150.788 27.0923 150.394 27.0923C149.975 27.0923 149.609 27.1793 149.297 27.3533C148.988 27.5238 148.748 27.7635 148.578 28.0724C148.411 28.3814 148.327 28.7436 148.327 29.1591H147.07C147.07 28.5199 147.217 27.9588 147.512 27.4759C147.807 26.9929 148.208 26.6165 148.716 26.3466C149.227 26.0767 149.801 25.9418 150.437 25.9418C151.076 25.9418 151.642 26.0767 152.136 26.3466C152.629 26.6165 153.016 26.9805 153.297 27.4386C153.578 27.8967 153.718 28.4062 153.718 28.9673C153.718 29.3686 153.645 29.761 153.499 30.1445C153.357 30.5245 153.109 30.9489 152.754 31.4176C152.402 31.8828 151.914 32.451 151.289 33.1222L148.839 35.7429V35.8281H153.91V37H147.028Z" fill="#1C2752"/>
</svg>
