<svg width="60" height="60" viewBox="0 0 60 60" fill="none" xmlns="http://www.w3.org/2000/svg">
<path d="M0 30C0 13.4315 13.4315 0 30 0C46.5685 0 60 13.4315 60 30C60 46.5685 46.5685 60 30 60C13.4315 60 0 46.5685 0 30Z" fill="#2C3765"/>
<path d="M33.6585 22.5473C34.7231 22.5503 35.7431 22.9589 36.4958 23.6838C37.2486 24.4086 37.6729 25.3909 37.6761 26.416V34.1527C37.6729 35.1778 37.2486 36.16 36.4958 36.8849C35.7431 37.6098 34.7231 38.0183 33.6585 38.0214H25.6243C24.5598 38.0183 23.5397 37.6098 22.787 36.8849C22.0342 36.16 21.6099 35.1778 21.6068 34.1527V26.416C21.6099 25.3909 22.0342 24.4086 22.787 23.6838C23.5397 22.9589 24.5598 22.5503 25.6243 22.5473H33.6585ZM33.6585 21H25.6243C22.5309 21 20 23.4371 20 26.416V34.1527C20 37.1315 22.5309 39.5686 25.6243 39.5686H33.6585C36.752 39.5686 39.2828 37.1315 39.2828 34.1527V26.416C39.2828 23.4371 36.752 21 33.6585 21Z" fill="white"/>
<path d="M34.8638 26.4168C34.6254 26.4168 34.3924 26.3487 34.1942 26.2212C33.996 26.0937 33.8416 25.9124 33.7504 25.7004C33.6591 25.4883 33.6353 25.255 33.6818 25.0298C33.7283 24.8047 33.8431 24.5979 34.0116 24.4356C34.1802 24.2733 34.3949 24.1628 34.6287 24.118C34.8625 24.0732 35.1048 24.0962 35.325 24.184C35.5452 24.2719 35.7334 24.4206 35.8659 24.6115C35.9983 24.8023 36.069 25.0267 36.069 25.2562C36.0693 25.4087 36.0384 25.5598 35.9779 25.7007C35.9175 25.8417 35.8287 25.9698 35.7167 26.0776C35.6048 26.1854 35.4718 26.2709 35.3254 26.3291C35.179 26.3873 35.0222 26.4171 34.8638 26.4168ZM29.6415 27.1902C30.2772 27.1902 30.8986 27.3717 31.4271 27.7118C31.9556 28.0519 32.3676 28.5352 32.6108 29.1007C32.8541 29.6663 32.9177 30.2885 32.7937 30.8889C32.6697 31.4893 32.3636 32.0407 31.9141 32.4736C31.4646 32.9064 30.892 33.2012 30.2685 33.3206C29.6451 33.44 28.9989 33.3787 28.4116 33.1445C27.8243 32.9102 27.3224 32.5135 26.9692 32.0046C26.6161 31.4956 26.4276 30.8972 26.4276 30.2851C26.4285 29.4646 26.7674 28.6779 27.3699 28.0976C27.9725 27.5174 28.7894 27.1911 29.6415 27.1902ZM29.6415 25.6429C28.6881 25.6429 27.756 25.9152 26.9633 26.4253C26.1705 26.9354 25.5526 27.6604 25.1878 28.5086C24.8229 29.3569 24.7274 30.2903 24.9134 31.1908C25.0994 32.0913 25.5586 32.9184 26.2328 33.5676C26.9069 34.2168 27.7659 34.659 28.701 34.8381C29.6362 35.0172 30.6054 34.9253 31.4863 34.5739C32.3672 34.2226 33.1201 33.6276 33.6498 32.8642C34.1795 32.1008 34.4622 31.2033 34.4622 30.2851C34.4622 29.0539 33.9543 27.8732 33.0503 27.0026C32.1462 26.132 30.92 25.6429 29.6415 25.6429Z" fill="white"/>
</svg>
