<svg width="50" height="50" viewBox="0 0 50 50" fill="none" xmlns="http://www.w3.org/2000/svg">
<path d="M0 25C0 11.1929 11.1929 0 25 0C38.8071 0 50 11.1929 50 25C50 38.8071 38.8071 50 25 50C11.1929 50 0 38.8071 0 25Z" fill="white"/>
<path d="M36.2509 31.8062C35.3347 30.8832 33.1158 29.5361 32.0393 28.9933C30.6373 28.2871 30.5219 28.2294 29.42 29.0481C28.6849 29.5944 28.1963 30.0824 27.3361 29.899C26.4759 29.7155 24.6066 28.6811 22.9698 27.0497C21.333 25.4182 20.2386 23.4948 20.0545 22.6376C19.8705 21.7803 20.3667 21.2974 20.9078 20.5607C21.6705 19.5223 21.6129 19.3492 20.9609 17.9474C20.4526 16.857 19.0663 14.6591 18.1397 13.7476C17.1485 12.7686 17.1485 12.9416 16.5098 13.207C15.9899 13.4258 15.4911 13.6917 15.0196 14.0014C14.0965 14.6146 13.5842 15.124 13.2259 15.8896C12.8676 16.6551 12.7067 18.4499 14.5569 21.8109C16.4071 25.1719 17.7053 26.8905 20.3921 29.5696C23.0788 32.2487 25.1449 33.6892 28.1651 35.383C31.9014 37.4754 33.3345 37.0675 34.1024 36.7098C34.8703 36.3522 35.382 35.8445 35.9965 34.9215C36.307 34.4508 36.5735 33.9526 36.7926 33.4331C37.0586 32.7967 37.2317 32.7967 36.2509 31.8062Z" stroke="#1C2752" stroke-width="2" stroke-miterlimit="10"/>
</svg>
