<svg width="55" height="55" viewBox="0 0 55 55" fill="none" xmlns="http://www.w3.org/2000/svg">
<path d="M0 27.5C0 12.3122 12.3122 0 27.5 0C42.6878 0 55 12.3122 55 27.5C55 42.6878 42.6878 55 27.5 55C12.3122 55 0 42.6878 0 27.5Z" fill="#FFB342"/>
<path d="M35.8555 19.4609C34.7031 19.9492 33.6973 20.6914 32.8379 21.6875C31.9785 22.6836 31.4609 23.6992 31.2852 24.7344C31.1875 25.2812 31.1387 25.75 31.1387 26.1406C31.1387 26.5898 31.1875 26.9609 31.2852 27.2539C32.2031 26.2969 33.3652 25.8184 34.7715 25.8184C36.1777 25.8184 37.3203 26.2285 38.1992 27.0488C39.0781 27.8691 39.5176 29.002 39.5176 30.4473C39.5176 31.8145 39.0488 32.9277 38.1113 33.7871C37.1934 34.6465 36.0215 35.0762 34.5957 35.0762C32.6426 35.0762 31.2168 34.373 30.3184 32.9668C29.9082 32.3613 29.5859 31.6191 29.3516 30.7402C29.1172 29.8418 29 28.9238 29 27.9863C29 25.9355 29.5273 24.0605 30.582 22.3613C31.6367 20.6621 33.209 19.334 35.2988 18.377L35.8555 19.4609ZM23.4922 19.4609C22.3398 19.9492 21.334 20.6914 20.4746 21.6875C19.6152 22.6836 19.0977 23.6992 18.9219 24.7344C18.8242 25.2812 18.7754 25.75 18.7754 26.1406C18.7754 26.5898 18.8242 26.9609 18.9219 27.2539C19.8398 26.2969 21.0019 25.8184 22.4082 25.8184C23.8144 25.8184 24.957 26.2285 25.8359 27.0488C26.7148 27.8691 27.1543 29.002 27.1543 30.4473C27.1543 31.8145 26.6855 32.9277 25.748 33.7871C24.8301 34.6465 23.6582 35.0762 22.2324 35.0762C20.2793 35.0762 18.8535 34.373 17.9551 32.9668C17.5449 32.3613 17.2227 31.6191 16.9883 30.7402C16.7539 29.8418 16.6367 28.9238 16.6367 27.9863C16.6367 25.9355 17.1641 24.0605 18.2187 22.3613C19.2734 20.6621 20.8457 19.334 22.9355 18.377L23.4922 19.4609Z" fill="#1C2752"/>
</svg>
