<svg width="68" height="68" viewBox="0 0 68 68" fill="none" xmlns="http://www.w3.org/2000/svg">
<path d="M0 34C0 15.2223 15.2223 0 34 0C52.7777 0 68 15.2223 68 34C68 52.7777 52.7777 68 34 68C15.2223 68 0 52.7777 0 34Z" fill="#FFB342"/>
<path d="M44.5 24H23.5C22.1193 24 21 25.1193 21 26.5V41.5C21 42.8807 22.1193 44 23.5 44H44.5C45.8807 44 47 42.8807 47 41.5V26.5C47 25.1193 45.8807 24 44.5 24Z" stroke="#1C2752" stroke-width="2" stroke-linecap="round" stroke-linejoin="round"/>
<path d="M25 28L34 35L43 28" stroke="#1C2752" stroke-width="2" stroke-linecap="round" stroke-linejoin="round"/>
</svg>
