<svg width="156" height="29" viewBox="0 0 156 29" fill="none" xmlns="http://www.w3.org/2000/svg">
<path fill-rule="evenodd" clip-rule="evenodd" d="M28.5147 15.5073C28.5147 10.7675 24.5237 6.92432 19.6016 6.92432C14.6795 6.92432 10.6885 10.7675 10.6885 15.5073C10.6885 19.7911 13.9473 23.342 18.2089 23.9865V17.9891H15.9452V15.5073H18.2089V13.6164C18.2089 11.4656 19.5399 10.2767 21.5756 10.2767C22.5509 10.2767 23.5711 10.4445 23.5711 10.4445V12.5569H22.4466C21.34 12.5569 20.9939 13.2183 20.9939 13.898V15.5073H23.4657L23.0709 17.9891H20.9943V23.9872C25.2558 23.3431 28.5147 19.7923 28.5147 15.5073Z" fill="#1C2752"/>
<path d="M98.3954 6C93.394 6 89.3387 10.0534 89.3387 15.0526C89.3387 18.7585 91.5705 21.943 94.7606 23.3454C94.7363 22.7149 94.7565 21.9551 94.9183 21.2681C95.0921 20.5326 96.0827 16.3337 96.0827 16.3337C96.0827 16.3337 95.7916 15.7557 95.7916 14.903C95.7916 13.5613 96.5679 12.5591 97.5382 12.5591C98.363 12.5591 98.7592 13.1774 98.7592 13.917C98.7592 14.7454 98.2296 15.9821 97.9587 17.1298C97.7323 18.0916 98.4398 18.8716 99.39 18.8716C101.104 18.8716 102.261 16.6691 102.261 14.0584C102.261 12.0741 100.922 10.5909 98.4924 10.5909C95.7471 10.5909 94.0328 12.6399 94.0328 14.9273C94.0328 15.7153 94.2673 16.273 94.6312 16.7014C94.797 16.8994 94.8212 16.9803 94.7606 17.2066C94.7161 17.3723 94.6191 17.7724 94.5746 17.934C94.514 18.1644 94.328 18.2452 94.1218 18.1603C92.8563 17.6431 92.266 16.2609 92.266 14.701C92.266 12.1307 94.4371 9.04716 98.739 9.04716C102.196 9.04716 104.472 11.5487 104.472 14.2322C104.472 17.7845 102.495 20.4356 99.584 20.4356C98.6056 20.4356 97.6878 19.9062 97.3724 19.3081C97.3724 19.3081 96.8468 21.3934 96.7336 21.7975C96.5436 22.4967 96.1676 23.1918 95.8239 23.7374C96.6576 23.9832 97.5221 24.1084 98.3913 24.1092C103.393 24.1092 107.448 20.0557 107.448 15.0566C107.448 10.0575 103.397 6 98.3954 6Z" fill="#1C2752"/>
<path d="M68.4765 9.65911C67.76 9.97042 67.002 10.1755 66.2263 10.2679C67.0415 9.79057 67.6545 9.03224 67.9504 8.13513C67.1797 8.5858 66.3379 8.90201 65.4611 9.07021C65.0919 8.68326 64.6479 8.37543 64.156 8.16543C63.6641 7.95543 63.1346 7.84765 62.5998 7.84864C60.4344 7.84864 58.682 9.57555 58.682 11.7043C58.6805 12.0005 58.7144 12.2957 58.7831 12.5837C57.2303 12.5109 55.7098 12.1148 54.3189 11.4207C52.9281 10.7267 51.6973 9.7499 50.7056 8.55293C50.3576 9.1395 50.1736 9.80874 50.1728 10.4907C50.1728 11.8277 50.8703 13.0095 51.9236 13.7018C51.2995 13.687 50.6883 13.5219 50.1417 13.2204V13.2681C50.1417 15.1383 51.4946 16.6941 53.2852 17.0482C52.9485 17.138 52.6015 17.1835 52.253 17.1835C52.0058 17.184 51.759 17.16 51.5165 17.1119C52.0143 18.6438 53.4631 19.758 55.1792 19.7898C53.7847 20.8645 52.0726 21.4454 50.312 21.4411C49.9995 21.4407 49.6873 21.4221 49.377 21.3854C51.168 22.5291 53.2499 23.134 55.375 23.1282C62.5914 23.1282 66.5339 17.2512 66.5339 12.154C66.5339 11.9869 66.5295 11.8197 66.5215 11.6566C67.2868 11.1123 67.9488 10.4359 68.4765 9.65911Z" fill="#1C2752"/>
<path d="M140.627 8.35469C141.611 8.35752 142.554 8.73524 143.25 9.40535C143.946 10.0755 144.338 10.9835 144.341 11.9312V19.0834C144.338 20.0311 143.946 20.9392 143.25 21.6093C142.554 22.2794 141.611 22.6571 140.627 22.6599H133.199C132.215 22.6571 131.272 22.2794 130.576 21.6093C129.881 20.9392 129.488 20.0311 129.485 19.0834V11.9312C129.488 10.9835 129.881 10.0755 130.576 9.40535C131.272 8.73524 132.215 8.35752 133.199 8.35469H140.627ZM140.627 6.92432H133.199C130.34 6.92432 128 9.17735 128 11.9312V19.0834C128 21.8373 130.34 24.0903 133.199 24.0903H140.627C143.486 24.0903 145.826 21.8373 145.826 19.0834V11.9312C145.826 9.17735 143.486 6.92432 140.627 6.92432Z" fill="#1C2752"/>
<path d="M141.741 11.9314C141.52 11.9314 141.305 11.8685 141.122 11.7506C140.939 11.6327 140.796 11.4651 140.712 11.2691C140.627 11.073 140.605 10.8573 140.648 10.6492C140.691 10.4411 140.797 10.2499 140.953 10.0999C141.109 9.94984 141.307 9.84766 141.523 9.80626C141.74 9.76486 141.964 9.78611 142.167 9.86731C142.371 9.94852 142.545 10.086 142.667 10.2625C142.79 10.4389 142.855 10.6463 142.855 10.8585C142.855 10.9995 142.827 11.1391 142.771 11.2694C142.715 11.3997 142.633 11.5181 142.529 11.6178C142.426 11.7175 142.303 11.7965 142.168 11.8503C142.032 11.9041 141.887 11.9317 141.741 11.9314ZM136.913 12.6464C137.501 12.6464 138.075 12.8142 138.564 13.1286C139.052 13.443 139.433 13.8898 139.658 14.4126C139.883 14.9354 139.942 15.5107 139.827 16.0657C139.712 16.6207 139.43 17.1305 139.014 17.5306C138.598 17.9308 138.069 18.2033 137.493 18.3137C136.916 18.4241 136.319 18.3674 135.776 18.1508C135.233 17.9343 134.769 17.5676 134.443 17.0971C134.116 16.6266 133.942 16.0734 133.942 15.5075C133.943 14.7489 134.256 14.0217 134.813 13.4853C135.37 12.9489 136.125 12.6472 136.913 12.6464ZM136.913 11.216C136.032 11.216 135.17 11.4677 134.437 11.9393C133.704 12.4108 133.133 13.0811 132.796 13.8652C132.458 14.6494 132.37 15.5123 132.542 16.3447C132.714 17.1772 133.139 17.9419 133.762 18.5421C134.385 19.1422 135.179 19.551 136.044 19.7165C136.908 19.8821 137.804 19.7972 138.618 19.4723C139.433 19.1475 140.129 18.5975 140.619 17.8917C141.108 17.186 141.37 16.3563 141.37 15.5075C141.37 14.3693 140.9 13.2778 140.064 12.473C139.229 11.6681 138.095 11.216 136.913 11.216Z" fill="#1C2752"/>
</svg>
