<svg width="180" height="62" viewBox="0 0 180 62" fill="none" xmlns="http://www.w3.org/2000/svg">
<path d="M0 0H180V62H0V0Z" fill="#FFC368"/>
<g clip-path="url(#clip0_1_939)">
<path d="M38.3161 22.4545C37.4741 21.5165 36.298 21 35 21C33.695 21 32.5151 21.5134 31.677 22.4455C30.8298 23.3879 30.417 24.6687 30.514 26.0518C30.7061 28.7803 32.7185 30.9999 35 30.9999C37.2815 30.9999 39.2905 28.7808 39.4856 26.0526C39.5838 24.6821 39.1684 23.404 38.3161 22.4545ZM42.6152 40.9999H27.3848C27.1855 41.0026 26.9881 40.9593 26.8069 40.8734C26.6258 40.7874 26.4655 40.6609 26.3377 40.503C26.0565 40.1561 25.9431 39.6825 26.0271 39.2035C26.3923 37.1133 27.5319 35.3575 29.3232 34.1249C30.9146 33.0307 32.9305 32.4285 35 32.4285C37.0695 32.4285 39.0854 33.0312 40.6768 34.1249C42.4681 35.3571 43.6077 37.1129 43.9729 39.203C44.0569 39.682 43.9435 40.1557 43.6623 40.5026C43.5345 40.6606 43.3743 40.7872 43.1931 40.8732C43.012 40.9592 42.8146 41.0025 42.6152 40.9999Z" fill="#1C2752"/>
</g>
<path d="M61.454 26.0909H62.775V33.8892C62.775 34.5852 62.6472 35.1765 62.3915 35.663C62.1358 36.1495 61.7754 36.5188 61.3102 36.771C60.845 37.0231 60.2963 37.1491 59.6642 37.1491C59.0676 37.1491 58.5367 37.0408 58.0715 36.8242C57.6063 36.604 57.2406 36.2915 56.9742 35.8867C56.7079 35.4819 56.5747 35.0007 56.5747 34.4432H57.8745C57.8745 34.7521 57.9508 35.022 58.1035 35.2528C58.2597 35.4801 58.4728 35.6577 58.7427 35.7855C59.0126 35.9134 59.3198 35.9773 59.6642 35.9773C60.0442 35.9773 60.3673 35.8974 60.6337 35.7376C60.9 35.5778 61.1024 35.3434 61.2409 35.0344C61.383 34.7219 61.454 34.3402 61.454 33.8892V26.0909ZM68.8758 37.1705C68.1372 37.1705 67.4891 36.9947 66.9316 36.6431C66.3776 36.2915 65.9443 35.7997 65.6318 35.1676C65.3229 34.5355 65.1684 33.7969 65.1684 32.9517C65.1684 32.0994 65.3229 31.3555 65.6318 30.7198C65.9443 30.0842 66.3776 29.5906 66.9316 29.239C67.4891 28.8874 68.1372 28.7116 68.8758 28.7116C69.6144 28.7116 70.2607 28.8874 70.8147 29.239C71.3722 29.5906 71.8055 30.0842 72.1144 30.7198C72.4269 31.3555 72.5832 32.0994 72.5832 32.9517C72.5832 33.7969 72.4269 34.5355 72.1144 35.1676C71.8055 35.7997 71.3722 36.2915 70.8147 36.6431C70.2607 36.9947 69.6144 37.1705 68.8758 37.1705ZM68.8758 36.0412C69.4369 36.0412 69.8985 35.8974 70.2607 35.6097C70.623 35.3221 70.8911 34.9439 71.0651 34.4751C71.2391 34.0064 71.3261 33.4986 71.3261 32.9517C71.3261 32.4048 71.2391 31.8952 71.0651 31.4229C70.8911 30.9506 70.623 30.5689 70.2607 30.2777C69.8985 29.9865 69.4369 29.8409 68.8758 29.8409C68.3147 29.8409 67.8531 29.9865 67.4909 30.2777C67.1286 30.5689 66.8605 30.9506 66.6865 31.4229C66.5125 31.8952 66.4255 32.4048 66.4255 32.9517C66.4255 33.4986 66.5125 34.0064 66.6865 34.4751C66.8605 34.9439 67.1286 35.3221 67.4909 35.6097C67.8531 35.8974 68.3147 36.0412 68.8758 36.0412ZM76.0592 32.0781V37H74.8021V26.0909H76.0592V30.0966H76.1658C76.3575 29.674 76.6452 29.3384 77.0287 29.0898C77.4158 28.8377 77.9307 28.7116 78.5734 28.7116C79.131 28.7116 79.6192 28.8235 80.0383 29.0472C80.4573 29.2674 80.7822 29.6065 81.0131 30.0646C81.2474 30.5192 81.3646 31.098 81.3646 31.8011V37H80.1075V31.8864C80.1075 31.2365 79.9389 30.734 79.6015 30.3789C79.2677 30.0202 78.8043 29.8409 78.2112 29.8409C77.7993 29.8409 77.43 29.9279 77.1033 30.1019C76.7801 30.2759 76.5244 30.5298 76.3362 30.8636C76.1516 31.1974 76.0592 31.6023 76.0592 32.0781ZM85.2215 32.0781V37H83.9644V28.8182H85.1789V30.0966H85.2855C85.4772 29.6811 85.7684 29.3473 86.159 29.0952C86.5497 28.8395 87.0539 28.7116 87.6718 28.7116C88.2258 28.7116 88.7105 28.8253 89.126 29.0526C89.5415 29.2763 89.8646 29.6172 90.0955 30.0753C90.3263 30.5298 90.4417 31.1051 90.4417 31.8011V37H89.1846V31.8864C89.1846 31.2436 89.0177 30.7429 88.6839 30.3842C88.3501 30.022 87.892 29.8409 87.3096 29.8409C86.9083 29.8409 86.5497 29.9279 86.2336 30.1019C85.9211 30.2759 85.6743 30.5298 85.4932 30.8636C85.3121 31.1974 85.2215 31.6023 85.2215 32.0781ZM106.506 29.5H105.185C105.107 29.12 104.971 28.7862 104.775 28.4986C104.584 28.2109 104.349 27.9695 104.072 27.7741C103.799 27.5753 103.495 27.4261 103.161 27.3267C102.827 27.2273 102.479 27.1776 102.117 27.1776C101.457 27.1776 100.858 27.3445 100.322 27.6783C99.7895 28.0121 99.3651 28.5039 99.0491 29.1538C98.7366 29.8036 98.5803 30.6009 98.5803 31.5455C98.5803 32.4901 98.7366 33.2873 99.0491 33.9371C99.3651 34.587 99.7895 35.0788 100.322 35.4126C100.858 35.7464 101.457 35.9134 102.117 35.9134C102.479 35.9134 102.827 35.8636 103.161 35.7642C103.495 35.6648 103.799 35.5174 104.072 35.3221C104.349 35.1232 104.584 34.88 104.775 34.5923C104.971 34.3011 105.107 33.9673 105.185 33.5909H106.506C106.407 34.1484 106.226 34.6474 105.963 35.0877C105.7 35.5281 105.374 35.9027 104.983 36.2116C104.592 36.517 104.154 36.7496 103.667 36.9094C103.184 37.0692 102.668 37.1491 102.117 37.1491C101.187 37.1491 100.359 36.9219 99.635 36.4673C98.9106 36.0128 98.3406 35.3665 97.9251 34.5284C97.5097 33.6903 97.3019 32.696 97.3019 31.5455C97.3019 30.3949 97.5097 29.4006 97.9251 28.5625C98.3406 27.7244 98.9106 27.0781 99.635 26.6236C100.359 26.169 101.187 25.9418 102.117 25.9418C102.668 25.9418 103.184 26.0217 103.667 26.1815C104.154 26.3413 104.592 26.5756 104.983 26.8846C105.374 27.19 105.7 27.5629 105.963 28.0032C106.226 28.44 106.407 28.9389 106.506 29.5ZM110.028 32.0781V37H108.771V26.0909H110.028V30.0966H110.134C110.326 29.674 110.614 29.3384 110.997 29.0898C111.384 28.8377 111.899 28.7116 112.542 28.7116C113.1 28.7116 113.588 28.8235 114.007 29.0472C114.426 29.2674 114.751 29.6065 114.982 30.0646C115.216 30.5192 115.333 31.098 115.333 31.8011V37H114.076V31.8864C114.076 31.2365 113.907 30.734 113.57 30.3789C113.236 30.0202 112.773 29.8409 112.18 29.8409C111.768 29.8409 111.399 29.9279 111.072 30.1019C110.749 30.2759 110.493 30.5298 110.305 30.8636C110.12 31.1974 110.028 31.6023 110.028 32.0781ZM117.933 37V28.8182H119.147V30.054H119.233C119.382 29.6491 119.652 29.3207 120.042 29.0685C120.433 28.8164 120.873 28.6903 121.363 28.6903C121.456 28.6903 121.571 28.6921 121.71 28.6957C121.848 28.6992 121.953 28.7045 122.024 28.7116V29.9901C121.981 29.9794 121.884 29.9634 121.731 29.9421C121.582 29.9173 121.424 29.9048 121.257 29.9048C120.859 29.9048 120.504 29.9883 120.192 30.1552C119.883 30.3185 119.638 30.5458 119.456 30.837C119.279 31.1246 119.19 31.4531 119.19 31.8224V37H117.933ZM123.814 37V28.8182H125.071V37H123.814ZM124.453 27.4545C124.208 27.4545 123.997 27.3711 123.819 27.2042C123.645 27.0373 123.558 26.8366 123.558 26.6023C123.558 26.3679 123.645 26.1673 123.819 26.0004C123.997 25.8335 124.208 25.75 124.453 25.75C124.698 25.75 124.908 25.8335 125.082 26.0004C125.259 26.1673 125.348 26.3679 125.348 26.6023C125.348 26.8366 125.259 27.0373 125.082 27.2042C124.908 27.3711 124.698 27.4545 124.453 27.4545ZM133.469 30.6506L132.34 30.9702C132.269 30.782 132.164 30.5991 132.026 30.4215C131.891 30.2404 131.706 30.0913 131.472 29.9741C131.237 29.8569 130.937 29.7983 130.571 29.7983C130.071 29.7983 129.653 29.9137 129.32 30.1445C128.989 30.3718 128.824 30.6612 128.824 31.0128C128.824 31.3253 128.938 31.5721 129.165 31.7532C129.392 31.9343 129.747 32.0852 130.23 32.206L131.445 32.5043C132.176 32.6818 132.722 32.9535 133.08 33.3192C133.439 33.6815 133.618 34.1484 133.618 34.7202C133.618 35.1889 133.483 35.608 133.213 35.9773C132.947 36.3466 132.574 36.6378 132.095 36.8509C131.615 37.0639 131.058 37.1705 130.422 37.1705C129.588 37.1705 128.897 36.9893 128.35 36.6271C127.803 36.2649 127.457 35.7358 127.311 35.0398L128.505 34.7415C128.618 35.1818 128.833 35.5121 129.149 35.7322C129.469 35.9524 129.886 36.0625 130.401 36.0625C130.987 36.0625 131.452 35.9382 131.796 35.6896C132.144 35.4375 132.318 35.1357 132.318 34.7841C132.318 34.5 132.219 34.2621 132.02 34.0703C131.821 33.875 131.516 33.7294 131.104 33.6335L129.74 33.3139C128.991 33.1364 128.441 32.8612 128.089 32.4883C127.741 32.1119 127.567 31.6413 127.567 31.0767C127.567 30.6151 127.697 30.2067 127.956 29.8516C128.219 29.4964 128.576 29.2177 129.027 29.0153C129.481 28.8129 129.996 28.7116 130.571 28.7116C131.381 28.7116 132.017 28.8892 132.478 29.2443C132.943 29.5994 133.274 30.0682 133.469 30.6506ZM139.369 28.8182V29.8835H135.129V28.8182H139.369ZM136.365 26.858H137.622V34.6562C137.622 35.0114 137.673 35.2777 137.776 35.4553C137.883 35.6293 138.018 35.7464 138.181 35.8068C138.348 35.8636 138.524 35.892 138.708 35.892C138.847 35.892 138.96 35.8849 139.049 35.8707C139.138 35.853 139.209 35.8388 139.262 35.8281L139.518 36.9574C139.433 36.9893 139.314 37.0213 139.161 37.0533C139.008 37.0888 138.815 37.1065 138.58 37.1065C138.225 37.1065 137.877 37.0302 137.536 36.8775C137.199 36.7248 136.918 36.4922 136.695 36.1797C136.475 35.8672 136.365 35.473 136.365 34.9972V26.858ZM141.56 37V28.8182H142.817V37H141.56ZM142.199 27.4545C141.954 27.4545 141.743 27.3711 141.565 27.2042C141.391 27.0373 141.304 26.8366 141.304 26.6023C141.304 26.3679 141.391 26.1673 141.565 26.0004C141.743 25.8335 141.954 25.75 142.199 25.75C142.444 25.75 142.653 25.8335 142.828 26.0004C143.005 26.1673 143.094 26.3679 143.094 26.6023C143.094 26.8366 143.005 27.0373 142.828 27.2042C142.653 27.3711 142.444 27.4545 142.199 27.4545ZM146.676 32.0781V37H145.419V28.8182H146.634V30.0966H146.74C146.932 29.6811 147.223 29.3473 147.614 29.0952C148.005 28.8395 148.509 28.7116 149.127 28.7116C149.681 28.7116 150.165 28.8253 150.581 29.0526C150.996 29.2763 151.32 29.6172 151.55 30.0753C151.781 30.5298 151.897 31.1051 151.897 31.8011V37H150.639V31.8864C150.639 31.2436 150.473 30.7429 150.139 30.3842C149.805 30.022 149.347 29.8409 148.764 29.8409C148.363 29.8409 148.005 29.9279 147.688 30.1019C147.376 30.2759 147.129 30.5298 146.948 30.8636C146.767 31.1974 146.676 31.6023 146.676 32.0781Z" fill="#1C2752"/>
<defs>
<clipPath id="clip0_1_939">
<rect width="18" height="20" fill="white" transform="translate(26 21)"/>
</clipPath>
</defs>
</svg>
