<svg width="68" height="68" viewBox="0 0 68 68" fill="none" xmlns="http://www.w3.org/2000/svg">
<path d="M0 34C0 15.2223 15.2223 0 34 0C52.7777 0 68 15.2223 68 34C68 52.7777 52.7777 68 34 68C15.2223 68 0 52.7777 0 34Z" fill="#FFB342"/>
<path d="M34 19C28.4792 19 24 23.4274 24 28.8803C24 35.1546 30.6667 45.0977 33.1146 48.532C33.2162 48.677 33.3494 48.7949 33.5032 48.8763C33.6571 48.9576 33.8273 49 34 49C34.1727 49 34.3429 48.9576 34.4968 48.8763C34.6506 48.7949 34.7838 48.677 34.8854 48.532C37.3333 45.0991 44 35.1597 44 28.8803C44 23.4274 39.5208 19 34 19Z" stroke="#1C2752" stroke-width="2" stroke-linecap="round" stroke-linejoin="round"/>
<path d="M34 34C36.2091 34 38 32.2091 38 30C38 27.7909 36.2091 26 34 26C31.7909 26 30 27.7909 30 30C30 32.2091 31.7909 34 34 34Z" stroke="#1C2752" stroke-width="2" stroke-linecap="round" stroke-linejoin="round"/>
</svg>
