<svg width="68" height="68" viewBox="0 0 68 68" fill="none" xmlns="http://www.w3.org/2000/svg">
<path d="M0 34C0 15.2223 15.2223 0 34 0C52.7777 0 68 15.2223 68 34C68 52.7777 52.7777 68 34 68C15.2223 68 0 52.7777 0 34Z" fill="#FFB342"/>
<path d="M45.2509 40.8062C44.3347 39.8832 42.1158 38.5361 41.0393 37.9933C39.6373 37.2871 39.5219 37.2294 38.42 38.0481C37.6849 38.5944 37.1963 39.0824 36.3361 38.899C35.4759 38.7155 33.6066 37.6811 31.9698 36.0497C30.333 34.4182 29.2386 32.4948 29.0545 31.6376C28.8705 30.7803 29.3667 30.2974 29.9078 29.5607C30.6705 28.5223 30.6129 28.3492 29.9609 26.9474C29.4526 25.857 28.0663 23.6591 27.1397 22.7476C26.1485 21.7686 26.1485 21.9416 25.5098 22.207C24.9899 22.4258 24.4911 22.6917 24.0196 23.0014C23.0965 23.6146 22.5842 24.124 22.2259 24.8896C21.8676 25.6551 21.7067 27.4499 23.5569 30.8109C25.4071 34.1719 26.7053 35.8905 29.3921 38.5696C32.0788 41.2487 34.1449 42.6892 37.1651 44.383C40.9014 46.4754 42.3345 46.0675 43.1024 45.7098C43.8703 45.3522 44.382 44.8445 44.9965 43.9215C45.307 43.4508 45.5735 42.9526 45.7926 42.4331C46.0586 41.7967 46.2317 41.7967 45.2509 40.8062Z" stroke="#1C2752" stroke-width="2" stroke-miterlimit="10"/>
</svg>
